<?xml version="1.0" encoding="utf-8"?>
<!-- Generator: Adobe Illustrator 25.0.0, SVG Export Plug-In . SVG Version: 6.00 Build 0)  -->
<svg version="1.1" id="Layer_1" xmlns="http://www.w3.org/2000/svg" xmlns:xlink="http://www.w3.org/1999/xlink" x="0px" y="0px"
	 viewBox="0 0 26 26" style="enable-background:new 0 0 26 26;" xml:space="preserve">
<style type="text/css">
	.st0{fill-rule:evenodd;clip-rule:evenodd;fill:#FFFFFF;}
</style>
<path id="CArt" class="st0" d="M19.5,23.7c0-1.1,0.9-1.9,2-1.9s1.9,0.9,1.9,2c0,1-0.9,1.9-1.9,1.9h0C20.4,25.6,19.5,24.8,19.5,23.7z
	 M5.3,23.7c0-1.1,0.9-1.9,2-1.9c1.1,0,1.9,0.9,1.9,2c0,1-0.9,1.9-1.9,1.9C6.1,25.7,5.3,24.8,5.3,23.7z M7.4,19.7
	c-1.6,0-3-1.2-3.2-2.8l0-0.2L3,2.6L1.1,2.3c-0.5-0.1-0.8-0.5-0.8-1l0-0.1c0.1-0.5,0.5-0.8,0.9-0.8h0l0.1,0l2.6,0.5
	c0.4,0.1,0.7,0.4,0.8,0.7l0,0.1l0.3,3.6H23c0.7,0,1.4,0.3,1.9,0.9c0.5,0.6,0.7,1.3,0.7,2l0,0.2l-1.2,8.5c-0.2,1.5-1.5,2.7-3,2.8
	l-0.2,0L7.4,19.7L7.4,19.7z M6.1,16.5c0.1,0.6,0.5,1.2,1.2,1.2l0.2,0h13.8c0.6,0,1.1-0.4,1.3-1l0-0.2l1.2-8.5
	c0.1-0.4-0.2-0.8-0.6-0.9l-0.1,0H5.3L6.1,16.5z M15.7,12c-0.5,0-1-0.5-0.9-1c0-0.5,0.4-0.9,0.8-0.9l0.1,0h3.5c0.5,0,1,0.5,0.9,1
	c0,0.5-0.4,0.9-0.8,0.9l-0.1,0H15.7z"/>
</svg>
