<svg xmlns="http://www.w3.org/2000/svg" width="23.812" height="27.94" viewBox="0 0 23.812 27.94">
  <defs>
    <style>
      .cls-1 {
        fill: #fff;
        fill-rule: evenodd;
        opacity: 0.5;
      }
    </style>
  </defs>
  <path class="cls-1" d="M146.408,9451.67l-0.084-.07-0.576-.4a28.859,28.859,0,0,1-6.324-5.98l-0.44-.57a14.941,14.941,0,0,1-3.026-8.63l0-.4a11.907,11.907,0,0,1,11.978-11.44h0.4a11.915,11.915,0,0,1,11.452,12.01v0.14c-0.09,3.68-1.915,7.49-5.274,10.99a29.827,29.827,0,0,1-5.274,4.3l-0.07.06a2.379,2.379,0,0,1-2.764-.02v0.01Zm1.216-25.37a9.791,9.791,0,0,0-9.544,9.7l0.024,0.5a12.836,12.836,0,0,0,2.582,6.88,27.031,27.031,0,0,0,6.834,6.46l0.114,0.09a0.262,0.262,0,0,0,.334,0l0.12-.09a27.734,27.734,0,0,0,4.9-3.98c2.983-3.12,4.6-6.42,4.678-9.56l0-.46a9.79,9.79,0,0,0-9.7-9.54h-0.341Zm-4.291,9.93a4.539,4.539,0,1,1,4.516,4.57A4.538,4.538,0,0,1,143.333,9436.23Zm2.12,0.01a2.419,2.419,0,1,0,2.433-2.4A2.412,2.412,0,0,0,145.453,9436.24Z" transform="translate(-135.969 -9424.19)"/>
</svg>
