<?xml version="1.0" encoding="utf-8"?>
<!-- Generator: Adobe Illustrator 25.0.0, SVG Export Plug-In . SVG Version: 6.00 Build 0)  -->
<svg version="1.1" id="Layer_1" xmlns="http://www.w3.org/2000/svg" xmlns:xlink="http://www.w3.org/1999/xlink" x="0px" y="0px"
	 viewBox="0 0 26 26" style="enable-background:new 0 0 26 26;" xml:space="preserve">
<style type="text/css">
	.st0{fill:#FFFFFF;}
</style>
<path id="Search-7" class="st0" d="M23.8,25.1L23.7,25l-3.8-3.7c-2.1,1.6-4.7,2.5-7.4,2.5C6.1,23.9,0.8,18.7,0.7,12.3
	C0.8,5.8,6.1,0.7,12.5,0.7C19,0.7,24.3,5.8,24.3,12.3c0,2.9-1.1,5.7-3.1,7.8l3.8,3.7c0.3,0.3,0.4,0.9,0,1.2c0,0,0,0,0,0
	C24.7,25.3,24.2,25.4,23.8,25.1L23.8,25.1z M2.5,12.3c0.1,5.5,4.5,9.8,10,9.8c5.5,0.1,9.9-4.3,10-9.8c-0.1-5.5-4.5-9.8-10-9.8
	C7.1,2.4,2.6,6.8,2.5,12.3z"/>
</svg>
