<svg xmlns="http://www.w3.org/2000/svg" width="20.062" height="19.09" viewBox="0 0 20.062 19.09">
  <defs>
    <style>
      .cls-1 {
        fill: gray;
        fill-rule: evenodd;
      }
    </style>
  </defs>
  <path id="LinkedIn" class="cls-1" d="M215.714,9729.23a2.051,2.051,0,0,1,.678-1.59,2.482,2.482,0,0,1,1.762-.63,2.383,2.383,0,0,1,1.724.62,2.166,2.166,0,0,1,.678,1.66,2.034,2.034,0,0,1-.658,1.54,2.524,2.524,0,0,1-1.782.63H218.1a2.38,2.38,0,0,1-1.725-.63A2.138,2.138,0,0,1,215.714,9729.23Zm0.252,16.87v-12.89h4.3v12.89h-4.3Zm6.682,0h4.3v-7.19a2.5,2.5,0,0,1,.978-2.15,2.165,2.165,0,0,1,1.385-.46c1.447,0,2.17.97,2.17,2.92v6.88h4.3v-7.39a6.166,6.166,0,0,0-1.356-4.32,4.622,4.622,0,0,0-3.583-1.48,4.405,4.405,0,0,0-3.891,2.14v0.04h-0.019l0.019-.04v-1.83h-4.3q0.039,0.615.039,3.84C222.687,9739.2,222.674,9742.22,222.648,9746.1Z" transform="translate(-215.719 -9727)"/>
</svg>
