<svg xmlns="http://www.w3.org/2000/svg" width="23.562" height="23.97" viewBox="0 0 23.562 23.97">
  <defs>
    <style>
      .cls-1 {
        fill: #fff;
        fill-rule: evenodd;
        opacity: 0.5;
      }
    </style>
  </defs>
  <path class="cls-1" d="M153.44,9382.31h0a6.337,6.337,0,0,1-2.693-.7,30.365,30.365,0,0,1-8.514-6.42,29.521,29.521,0,0,1-6.257-8.66l-0.116-.28c-0.8-1.94-.743-3.54.152-4.75,0.784-1.3,2.933-3.18,4.518-3.17h0.124a2.68,2.68,0,0,1,1.64.86,18.092,18.092,0,0,1,3.063,4.36,2.91,2.91,0,0,1-.558,2.28l-0.131.23a1.021,1.021,0,0,0-.212.86,10.665,10.665,0,0,0,5.943,6.09,0.836,0.836,0,0,0,.223.04,1.834,1.834,0,0,0,.813-0.32l0.294-.17a2.95,2.95,0,0,1,1.494-.48,3.357,3.357,0,0,1,.546.07,17.9,17.9,0,0,1,4.277,3.15,2.669,2.669,0,0,1,.839,1.71c0.046,1.57-1.861,3.86-3.121,4.57A3.883,3.883,0,0,1,153.44,9382.31ZM140.5,9360.08H140.41a6.359,6.359,0,0,0-2.969,2.38l-0.093.14a3.452,3.452,0,0,0,.219,3.24l0.117,0.3a29.172,29.172,0,0,0,5.939,7.97,28.259,28.259,0,0,0,7.822,5.9l0.25,0.12a4.615,4.615,0,0,0,1.714.42,2.347,2.347,0,0,0,1.421-.45l0.059-.04a8.7,8.7,0,0,0,1.282-1.22,3.413,3.413,0,0,0,.978-1.75,1.177,1.177,0,0,0-.351-0.59,23.357,23.357,0,0,0-3.4-2.64,0.732,0.732,0,0,0-.148-0.02,1.969,1.969,0,0,0-.9.36l-0.292.17a2.915,2.915,0,0,1-1.431.44,2.578,2.578,0,0,1-.868-0.18,12.392,12.392,0,0,1-6.919-7.09,2.7,2.7,0,0,1,.423-2.51l0.134-.24a1.274,1.274,0,0,0,.265-0.89,23.525,23.525,0,0,0-2.584-3.46A1.068,1.068,0,0,0,140.5,9360.08Z" transform="translate(-135.313 -9358.34)"/>
</svg>
