<svg xmlns="http://www.w3.org/2000/svg" width="20.062" height="16.25" viewBox="0 0 20.062 16.25">
  <defs>
    <style>
      .cls-1 {
        fill: gray;
        fill-rule: evenodd;
      }
    </style>
  </defs>
  <path id="Twitter" class="cls-1" d="M295.844,9730.01h0.94l0.344,0.07a3.369,3.369,0,0,1,.624.17,3.764,3.764,0,0,1,.544.26,4.546,4.546,0,0,1,.476.29,2.988,2.988,0,0,1,.38.31,0.518,0.518,0,0,0,.52.09c0.257-.06.511-0.14,0.759-0.22q0.408-.15.8-0.33c0.263-.12.425-0.2,0.485-0.23l0.09-.05v-0.01l0.018-.01,0.018-.01h0.018l0.018-.01v-0.01h0.005l0.015-.01h0l0.018-.01h0.018v0.03l0,0.03-0.008.02-0.009.03-0.014.01v0.02l-0.013.03a0.391,0.391,0,0,0-.018.07,3.642,3.642,0,0,1-.169.36,4.679,4.679,0,0,1-.408.64,3.177,3.177,0,0,1-.437.49c-0.131.11-.217,0.19-0.259,0.23a0.921,0.921,0,0,1-.154.13l-0.09.06-0.018.01-0.018.01h-0.01v0.01h-0.018l-0.018.01v0.01H300.26v0.01h0.081l0.5-.1a8.229,8.229,0,0,0,.968-0.27l0.466-.14,0.055-.01,0.027-.01,0.018-.01,0.018-.01,0.018-.01,0.018-.01H302.5v0.03h-0.009l-0.009.01h-0.01v0.01h-0.01V9732h0l-0.009.02-0.009.02h0l-0.23.3a2.084,2.084,0,0,1-.244.31,0.11,0.11,0,0,0-.05.05,4.4,4.4,0,0,1-.383.41c-0.22.21-.45,0.42-0.691,0.62a0.856,0.856,0,0,0-.345.68c0,0.26-.017.57-0.041,0.9a9.108,9.108,0,0,1-.157,1.12,13.02,13.02,0,0,1-.308,1.32,12.09,12.09,0,0,1-.5,1.44,10.112,10.112,0,0,1-.624,1.26c-0.217.38-.418,0.69-0.6,0.95s-0.368.5-.552,0.73-0.424.48-.709,0.77-0.443.44-.471,0.47-0.145.12-.354,0.3-0.432.34-.669,0.51c-0.211.15-.43,0.3-0.655,0.43q-0.3.165-.721,0.39a9.642,9.642,0,0,1-.908.41c-0.325.13-.669,0.24-1.031,0.35a7.63,7.63,0,0,1-1.05.25c-0.334.06-.717,0.11-1.148,0.16l-0.643.06v0.01h-1.176v-0.01l-0.154-.01c-0.1-.01-0.187-0.02-0.253-0.02s-0.317-.04-0.75-0.1-0.775-.12-1.023-0.18-0.615-.18-1.1-0.34c-0.428-.15-0.847-0.32-1.254-0.51q-0.519-.255-0.651-0.33c-0.087-.04-0.186-0.1-0.295-0.16l-0.162-.1v-0.01h-0.01l-0.018-.01-0.019-.01v-0.01h-0.009v-0.01h-0.035v-0.03h0.036l0.082,0.01c0.054,0.01.2,0.02,0.443,0.03s0.5,0.01.769,0a7.773,7.773,0,0,0,.833-0.08,8.671,8.671,0,0,0,1-.22,6.684,6.684,0,0,0,1.063-.36c0.323-.14.552-0.25,0.688-0.32a5.353,5.353,0,0,0,.619-0.38l0.416-.28h0.01v-0.01h0.01v-0.01h0.036v-0.02l0-.02h0l-0.119-.05-0.281-.02a2.056,2.056,0,0,1-.425-0.08,4.441,4.441,0,0,1-.624-0.21,5.23,5.23,0,0,1-.652-0.35,2.408,2.408,0,0,1-.457-0.33c-0.093-.08-0.214-0.21-0.362-0.36a3.859,3.859,0,0,1-.384-0.5,4.13,4.13,0,0,1-.311-0.58l-0.15-.32-0.009-.04-0.009-.02,0-.02v-0.02h0.027l0.027,0.01,0.2,0.02a4.329,4.329,0,0,0,.624.02,3.843,3.843,0,0,0,.587-0.04c0.109-.01.176-0.03,0.2-0.03l0.035-.01,0.046-.01,0.035-.01h0.009v-0.01l-0.035-.01-0.025-.01-0.035-.01-0.037-.01-0.036-.01-0.127-.04a3.485,3.485,0,0,1-.489-0.2,3.74,3.74,0,0,1-.63-0.33,3.291,3.291,0,0,1-.449-0.35,5.222,5.222,0,0,1-.464-0.5,3.711,3.711,0,0,1-.456-0.71,4.264,4.264,0,0,1-.3-0.78,4.011,4.011,0,0,1-.131-0.74l-0.03-.38h0.036l0.018,0.01,0.018,0.01,0.018,0.01,0.018,0.01,0.281,0.13a4.169,4.169,0,0,0,.7.21c0.278,0.06.445,0.09,0.5,0.1l0.081,0.01h0.153v-0.02h-0.01l-0.037-.02-0.018-.01v-0.01h-0.01l-0.019-.01-0.026-.02v-0.01l-0.155-.11a2.292,2.292,0,0,1-.317-0.29c-0.108-.12-0.217-0.25-0.326-0.38a2.725,2.725,0,0,1-.29-0.42,6.092,6.092,0,0,1-.268-0.57,4.443,4.443,0,0,1-.212-0.7,4.054,4.054,0,0,1-.078-0.7,4.324,4.324,0,0,1,.018-0.58,3.821,3.821,0,0,1,.108-0.55,4.508,4.508,0,0,1,.235-0.65l0.155-.34,0.009-.03,0.009-.03h0.025v0.01h0.005l0.009,0.02,0.009,0.02h0v0.01l0.244,0.27q0.243,0.27.579,0.6a3.223,3.223,0,0,0,.371.34,0.3,0.3,0,0,1,.09.08,3.3,3.3,0,0,0,.362.32,9.9,9.9,0,0,0,.8.59,11.591,11.591,0,0,0,1.1.65,10.456,10.456,0,0,0,1.3.59c0.465,0.17.79,0.29,0.977,0.34a8.408,8.408,0,0,0,.959.21c0.453,0.08.794,0.14,1.023,0.16s0.395,0.04.5,0.06H292.3v-0.03l-0.006-.02-0.036-.23a4.915,4.915,0,0,1,.027-1.38,4.667,4.667,0,0,1,.19-0.69,3.754,3.754,0,0,1,.247-0.56,4.569,4.569,0,0,1,.323-0.48,4.131,4.131,0,0,1,.515-0.56,3.62,3.62,0,0,1,.721-0.51,4.249,4.249,0,0,1,.754-0.34,3.88,3.88,0,0,1,.579-0.16A1.86,1.86,0,0,0,295.844,9730.01Z" transform="translate(-282.438 -9730)"/>
</svg>
